<svg width="49" height="49" viewBox="0 0 49 49" fill="none" xmlns="http://www.w3.org/2000/svg">
<path d="M31.8398 8.58447H17.1602C12.4235 8.58447 8.58453 12.4242 8.58453 17.1608V31.8391C8.58453 36.5757 12.4242 40.4154 17.1609 40.4154H31.8391C36.5758 40.4154 40.4155 36.5757 40.4155 31.8391V17.1608C40.4155 12.4242 36.5765 8.58447 31.8398 8.58447Z" fill="white"/>
<path d="M31.8398 8.58447H17.1602C12.4235 8.58447 8.58453 12.4242 8.58453 17.1608V31.8391C8.58453 36.5757 12.4242 40.4154 17.1609 40.4154H31.8391C36.5758 40.4154 40.4155 36.5757 40.4155 31.8391V17.1608C40.4155 12.4242 36.5765 8.58447 31.8398 8.58447Z" stroke="black" stroke-width="0.5" stroke-miterlimit="10"/>
<path d="M24.5 32.1834C28.7435 32.1834 32.1835 28.7433 32.1835 24.4999C32.1835 20.2564 28.7435 16.8164 24.5 16.8164C20.2565 16.8164 16.8165 20.2564 16.8165 24.4999C16.8165 28.7433 20.2565 32.1834 24.5 32.1834Z" stroke="black" stroke-width="0.5" stroke-miterlimit="10"/>
<path d="M33.8297 16.8165C34.7389 16.8165 35.476 16.0794 35.476 15.1702C35.476 14.261 34.7389 13.5239 33.8297 13.5239C32.9205 13.5239 32.1835 14.261 32.1835 15.1702C32.1835 16.0794 32.9205 16.8165 33.8297 16.8165Z" fill="black"/>
</svg>
