<svg width="45" height="45" viewBox="0 0 45 45" fill="none" xmlns="http://www.w3.org/2000/svg">
<path d="M34.575 5.73755H10.425C9.18287 5.74101 7.99259 6.23598 7.11427 7.11431C6.23594 7.99264 5.74097 9.18291 5.7375 10.425V34.5751C5.74097 35.8172 6.23594 37.0075 7.11427 37.8858C7.99259 38.7641 9.18287 39.2591 10.425 39.2626H34.575C35.8182 39.2626 37.0105 38.7687 37.8896 37.8896C38.7686 37.0105 39.2625 35.8183 39.2625 34.5751V10.425C39.2625 9.18185 38.7686 7.98956 37.8896 7.11049C37.0105 6.23141 35.8182 5.73755 34.575 5.73755ZM37.3875 34.5751C37.3826 35.3195 37.0847 36.032 36.5583 36.5584C36.0319 37.0847 35.3194 37.3826 34.575 37.3876H10.425C9.6806 37.3826 8.96808 37.0847 8.4417 36.5584C7.91531 36.032 7.61742 35.3195 7.6125 34.5751V10.425C7.61742 9.68064 7.91531 8.96813 8.4417 8.44174C8.96808 7.91536 9.6806 7.61746 10.425 7.61255H34.575C35.3194 7.61746 36.0319 7.91536 36.5583 8.44174C37.0847 8.96813 37.3826 9.68064 37.3875 10.425V34.5751Z" fill="black"/>
<path d="M11.955 20.1526C11.955 19.6553 12.1525 19.1784 12.5042 18.8268C12.8558 18.4751 13.3327 18.2776 13.83 18.2776C14.3273 18.2776 14.8042 18.4751 15.1558 18.8268C15.5075 19.1784 15.705 19.6553 15.705 20.1526V32.3401C15.705 32.8374 15.5075 33.3143 15.1558 33.6659C14.8042 34.0175 14.3273 34.2151 13.83 34.2151C13.3327 34.2151 12.8558 34.0175 12.5042 33.6659C12.1525 33.3143 11.955 32.8374 11.955 32.3401V20.1526Z" fill="black"/>
<path d="M13.83 14.52C14.8655 14.52 15.705 13.6806 15.705 12.645C15.705 11.6095 14.8655 10.77 13.83 10.77C12.7945 10.77 11.955 11.6095 11.955 12.645C11.955 13.6806 12.7945 14.52 13.83 14.52Z" fill="black"/>
<path d="M33.0375 25.0687V32.3437C33.0375 32.841 32.84 33.3179 32.4883 33.6695C32.1367 34.0211 31.6598 34.2187 31.1625 34.2187C30.6652 34.2187 30.1883 34.0211 29.8367 33.6695C29.485 33.3179 29.2875 32.841 29.2875 32.3437V25.0687C29.2875 24.2656 28.9685 23.4954 28.4006 22.9275C27.8327 22.3596 27.0625 22.0406 26.2594 22.0406C25.4563 22.0406 24.686 22.3596 24.1182 22.9275C23.5503 23.4954 23.2312 24.2656 23.2312 25.0687V32.3437C23.2312 32.841 23.0337 33.3179 22.6821 33.6695C22.3304 34.0211 21.8535 34.2187 21.3562 34.2187C20.859 34.2187 20.3821 34.0211 20.0304 33.6695C19.6788 33.3179 19.4812 32.841 19.4812 32.3437V20.1562C19.489 19.6613 19.689 19.1889 20.039 18.8389C20.3889 18.4889 20.8614 18.2889 21.3562 18.2812C21.6738 18.2725 21.9879 18.3498 22.2651 18.5049C22.5424 18.66 22.7725 18.8872 22.9312 19.1624C23.9622 18.5781 25.1286 18.2747 26.3136 18.2825C27.4987 18.2904 28.6609 18.6092 29.6841 19.2072C30.7072 19.8051 31.5555 20.6612 32.144 21.6899C32.7324 22.7185 33.0406 23.8836 33.0375 25.0687Z" fill="black"/>
</svg>
