<svg width="83" height="110" viewBox="0 0 83 110" fill="none" xmlns="http://www.w3.org/2000/svg">
<path d="M61.9996 103.707C62.0259 103.706 62.0525 103.706 62.0787 103.705C62.0815 104.01 62.0839 104.31 62.0963 104.588C62.1266 105.209 62.1899 105.514 62.4684 105.943C62.7732 106.416 63.1146 106.73 63.6207 107.001C63.9175 107.161 64.2631 107.305 64.6295 107.446C65.1965 107.659 66.3099 107.586 67.2223 107.4C67.918 107.274 68.3471 106.749 68.8092 105.816C69.0284 105.441 68.9292 104.817 68.7282 103.98C68.6689 103.665 68.2878 103.289 67.7799 103.107C67.5856 103.035 67.3708 102.993 67.2242 102.994C67.2382 102.329 67.2504 101.663 67.2643 100.998C67.7332 101.002 68.1272 101.097 68.5065 101.233C69.424 101.576 70.3839 102.277 70.6813 103.488C70.8505 104.282 71.2104 105.467 70.6002 106.676C70.1508 107.664 69.1114 109.116 67.5836 109.355C66.4196 109.552 65.3248 109.775 63.8737 109.311C63.4757 109.156 63.0627 108.988 62.6393 108.761C61.9178 108.39 61.2064 107.744 60.775 107.047C60.3138 106.405 60.0982 105.395 60.0934 104.721C60.0823 104.471 60.0793 104.233 60.0768 104H59.9996V65H61.9996V103.707ZM21.9996 103.528L22.0026 103.529C21.9998 103.816 22.0054 104.094 22.0133 104.403C22.0164 104.685 22.0403 105.018 21.9567 105.453C21.8711 105.892 21.6652 106.268 21.486 106.545C21.0132 107.32 20.1892 108.008 19.402 108.373C19.0555 108.544 18.7176 108.681 18.3893 108.808C16.9376 109.273 15.8417 109.05 14.6774 108.854C13.1499 108.614 12.112 107.161 11.6627 106.173C11.0525 104.965 11.4125 103.78 11.5817 102.986C11.8816 101.767 12.8481 101.065 13.7731 100.725C14.1469 100.592 14.5352 100.499 14.9967 100.496C15.0106 101.161 15.0248 101.827 15.0387 102.492C14.8949 102.491 14.6843 102.531 14.4928 102.602C13.9807 102.782 13.5933 103.161 13.5338 103.479C13.3329 104.314 13.233 104.938 13.4518 105.313C13.9141 106.247 14.3436 106.772 15.0397 106.898C15.952 107.084 17.0643 107.157 17.6315 106.944C17.9338 106.828 18.2229 106.709 18.4811 106.581C19.0735 106.29 19.4589 105.964 19.7946 105.441C19.9155 105.254 19.9699 105.131 19.9909 105.022C20.016 104.913 20.0178 104.681 20.0104 104.408C20.007 104.276 20.0032 104.139 20.0006 104H19.9996V103.859C19.998 103.731 19.9964 103.6 19.9977 103.471H19.9996V65H21.9996V103.528ZM33.9996 100H31.9996V67H33.9996V100ZM50.9996 100H48.9996V67H50.9996V100ZM11.5992 57.9795C11.7445 57.982 11.8651 57.9878 11.9508 57.9932C11.9869 57.9954 12.0171 57.998 12.0407 58H69.9655C69.9931 57.9981 70.0323 57.9957 70.0807 57.9932C70.1778 57.988 70.3152 57.982 70.4811 57.9795C70.8111 57.9746 71.2679 57.9825 71.7614 58.0342C72.2493 58.0853 72.8098 58.183 73.3326 58.374C73.8453 58.5614 74.4164 58.8732 74.8082 59.4121C75.5926 60.4915 75.3371 61.9544 74.7409 62.9756C74.1094 64.0567 72.9158 65 71.3248 65C70.5622 64.9999 69.9237 64.8001 69.4137 64.4492C68.9116 64.1037 68.5918 63.6523 68.3903 63.2363C68.1903 62.8236 68.095 62.423 68.0485 62.1348C68.0248 61.9883 68.0128 61.8638 68.0065 61.7725C68.0033 61.7266 68.0016 61.6882 68.0006 61.6592C68.0002 61.6449 67.9998 61.6328 67.9996 61.623V61.6016L69.9996 61.5996L70.0016 61.6338C70.0043 61.6736 70.0105 61.7372 70.0231 61.8154C70.0492 61.977 70.0995 62.1772 70.1901 62.3643C70.2791 62.5479 70.396 62.6964 70.5475 62.8008C70.6913 62.8997 70.9254 62.9999 71.3248 63C72.059 63 72.6602 62.5712 73.0133 61.9668C73.401 61.3028 73.3202 60.7659 73.191 60.5879C73.126 60.4985 72.9684 60.3708 72.6461 60.2529C72.3336 60.1388 71.9499 60.0651 71.5524 60.0234C71.3605 60.0034 71.1733 59.9908 70.9996 59.9844V60H10.9996V59.9941C10.9074 60.0007 10.8118 60.0096 10.7145 60.0215C9.99284 60.1095 9.50213 60.3226 9.30921 60.5879C9.11311 60.8579 9.02446 61.4636 9.28968 62.0723C9.52714 62.6171 9.97885 63 10.6754 63C11.0747 62.9999 11.309 62.8997 11.4528 62.8008C11.6042 62.6964 11.7212 62.5479 11.8102 62.3643C11.9008 62.1772 11.9511 61.977 11.9772 61.8154C11.9898 61.7372 11.9959 61.6736 11.9987 61.6338L12.0006 61.5996L14.0006 61.6016V61.623C14.0005 61.6328 14.0001 61.6449 13.9996 61.6592C13.9987 61.6882 13.997 61.7266 13.9938 61.7725C13.9875 61.8638 13.9745 61.9883 13.9508 62.1348C13.9042 62.423 13.8099 62.8236 13.61 63.2363C13.4085 63.6523 13.0886 64.1037 12.5866 64.4492C12.0766 64.8001 11.438 64.9999 10.6754 65C9.04698 65 7.95378 64.0117 7.45667 62.8711C6.98747 61.7943 6.97359 60.3996 7.69105 59.4121C8.41199 58.4202 9.67261 58.1337 10.4723 58.0361C10.9107 57.9827 11.3109 57.9745 11.5992 57.9795ZM78.3248 47C79.9482 47 81.1328 48.0306 81.7467 49.1143C82.0571 49.6622 82.2557 50.2754 82.2926 50.8711C82.3287 51.4542 82.2126 52.1307 81.7535 52.6572C81.3765 53.0895 80.8764 53.358 80.4264 53.5312C79.9671 53.7081 79.483 53.8149 79.0612 53.8809C78.653 53.9447 78.2781 53.9735 77.9996 53.9873V54H3.99964V53.9795C3.77087 53.9634 3.47835 53.9358 3.15882 53.876C2.46785 53.7466 1.43333 53.4445 0.74671 52.6572C0.325311 52.174 0.156203 51.5504 0.128546 50.9814C0.100319 50.4004 0.212559 49.7839 0.451788 49.2178C0.932238 48.081 2.01045 47 3.67542 47C5.1913 47.0002 6.10303 47.6875 6.57386 48.4971C6.79019 48.8692 6.89473 49.2329 6.94593 49.4971C6.97189 49.631 6.9857 49.7455 6.9928 49.8311C6.99636 49.8739 6.99756 49.9102 6.99866 49.9385C6.99921 49.9527 7.00042 49.9654 7.00062 49.9756V49.999L5.00062 50.001V50.0166C5.00058 50.0157 5.00058 50.0085 4.99964 49.9971C4.99767 49.9733 4.99238 49.9312 4.98206 49.8779C4.96063 49.7673 4.9194 49.6305 4.84534 49.5029C4.73489 49.3129 4.48361 49.0002 3.67542 49C3.01535 49 2.54866 49.3952 2.29456 49.9961C2.16658 50.299 2.11361 50.6176 2.12659 50.8848C2.14022 51.1638 2.21908 51.3021 2.25452 51.3428C2.4817 51.6029 2.94678 51.8015 3.52698 51.9102C3.79219 51.9598 4.03754 51.983 4.21644 51.9932C4.3049 51.9982 4.37573 51.9994 4.42151 52H77.6022C77.6641 51.9994 77.757 51.9975 77.8717 51.9922C78.1033 51.9815 78.4178 51.9576 78.7526 51.9053C79.0912 51.8523 79.4253 51.7737 79.7076 51.665C79.9992 51.5528 80.1658 51.4342 80.2457 51.3428C80.2457 51.3428 80.2473 51.3419 80.2487 51.3398C80.2501 51.3377 80.2518 51.3335 80.2545 51.3281C80.2602 51.317 80.2684 51.298 80.276 51.2695C80.2918 51.2103 80.3042 51.119 80.2965 50.9951C80.2809 50.7426 80.1884 50.4207 80.0065 50.0996C79.6359 49.4456 79.0264 49 78.3248 49C77.5165 49.0001 77.2654 49.3129 77.1549 49.5029C77.0808 49.6305 77.0387 49.7673 77.0172 49.8779C77.0069 49.9312 77.0026 49.9733 77.0006 49.9971C76.9997 50.0085 76.9997 50.0157 76.9996 50.0166V50.001L74.9996 49.999V49.9756C74.9998 49.9654 75.0001 49.9527 75.0006 49.9385C75.0017 49.9102 75.0039 49.8739 75.0075 49.8311C75.0146 49.7455 75.0284 49.631 75.0543 49.4971C75.1055 49.2329 75.2091 48.8692 75.4254 48.4971C75.8962 47.6873 76.8086 47.0001 78.3248 47ZM55.4069 30.5596L56.3346 33.7549L56.3844 33.9268L56.1891 36.4492L56.0455 36.6689L54.7155 38.6787L54.6227 38.8203L54.4899 38.9229L50.7438 41.8311L47.193 44.5859L45.8883 47.4111L44.7604 49.8525L44.0182 47.2969L43.0905 44.1025L43.0407 43.9307L43.3209 40.2959L43.5407 40.042L46.1178 37.0625L46.1588 37.0156L46.2047 36.9746L53.778 30.1162L54.9655 29.042L55.4069 30.5596ZM43.4186 2.49512L45.4352 6.80176L45.6305 7.21973L45.4352 7.64355L42.6159 13.7451L42.5358 13.918L42.3991 14.0498L37.3834 18.9102L32.3121 25.6875L30.7926 31.3701L32.5846 36.3223L33.8805 38.3418L39.4889 31.4531L39.5416 31.3877L39.6032 31.333L48.3532 23.5703L52.0172 18.8926L52.6471 10.7256L54.2643 13.5488L57.3678 18.9678L57.6071 19.3848L57.4244 19.8359L54.525 26.9785L54.4215 27.2324L54.2047 27.4014L47.9889 32.2256L40.6334 38.8848L39.3727 42.3496L41.2145 46.2852L42.1051 48.1875L40.0553 47.6904L34.2926 46.291L34.0182 46.2246L33.8219 46.0244L27.2926 39.3496L27.1354 39.1895L27.0651 38.9766L24.2008 30.4346L24.0817 30.0771L24.2291 29.7285L28.5387 19.5342L28.6129 19.3584L28.7457 19.2217L36.3326 11.3916L40.2262 5.50293L41.6032 2.52344L42.5104 0.556641L43.4186 2.49512ZM42.0094 6.3877L41.9772 6.45703L41.9342 6.52246L37.9469 12.5527L37.8942 12.6328L37.8278 12.7012L30.3063 20.4609L26.2203 30.1299L28.8912 38.1016L35.068 44.416L38.5065 45.25L37.3825 42.8477L37.2086 42.4746L37.3502 42.084L38.8395 37.9922L38.9254 37.7549L39.1129 37.5859L46.6871 30.7285L46.7164 30.7021L46.7467 30.6787L52.7741 26L55.3864 19.5615L54.1393 17.3828L53.9664 19.624L53.777 19.8662L49.8688 24.8564L49.8121 24.9297L49.7418 24.9902L40.9821 32.7617L34.5494 40.667L33.6715 41.7461L32.9303 40.5928L30.8356 37.3271L30.776 37.2344L30.7389 37.1318L28.8024 31.7832L28.6969 31.4912L28.778 31.1875L30.4284 25.0146L30.4782 24.8252L30.5963 24.6689L35.8326 17.668L35.8815 17.6035L35.9401 17.5459L40.8795 12.7588L43.4225 7.25293L42.5104 5.30371L42.0094 6.3877ZM47.5826 38.4023L45.2662 41.0811L45.0651 43.6914L45.1989 44.1562L45.4811 43.5479L45.5856 43.3223L45.7828 43.1689L49.5299 40.2607L53.1412 37.4561L54.233 35.8057L54.36 34.165L53.9225 32.6621L47.5826 38.4023Z" fill="#A9AE85"/>
</svg>
