<svg width="312" height="312" viewBox="0 0 312 312" fill="none" xmlns="http://www.w3.org/2000/svg">
<path d="M160.069 310.947L160.095 311.947C158.734 311.982 157.369 312 156 312C154.631 312 153.266 311.982 151.905 311.947L151.931 310.947V310.946C152.618 310.964 153.307 310.979 153.997 310.987L156 311C157.36 311 158.716 310.981 160.068 310.946L160.069 310.947ZM135.756 309.688C138.426 310.036 141.117 310.317 143.827 310.527V310.529L143.749 311.526C141.021 311.314 138.313 311.032 135.626 310.682L135.756 309.689V309.688ZM176.244 309.689L176.374 310.682C173.687 311.032 170.979 311.314 168.251 311.526L168.173 310.529L168.172 310.527C170.883 310.317 173.573 310.036 176.243 309.688L176.244 309.689ZM119.801 306.747C122.422 307.374 125.068 307.935 127.739 308.427V308.43L127.559 309.413C124.87 308.918 122.205 308.354 119.567 307.723L119.801 306.75V306.747ZM192.199 306.75L192.316 307.236H192.315L192.433 307.723C189.795 308.354 187.13 308.918 184.441 309.413L184.261 308.43L184.26 308.427C186.931 307.935 189.577 307.374 192.198 306.747L192.199 306.75ZM104.243 302.146C106.786 303.047 109.359 303.884 111.961 304.653V304.654L111.678 305.613C109.059 304.839 106.468 303.997 103.909 303.091L104.243 302.148V302.146ZM207.757 302.148L208.091 303.091C205.532 303.997 202.941 304.839 200.322 305.613L200.039 304.654L200.038 304.653C202.64 303.884 205.213 303.047 207.756 302.146L207.757 302.148ZM261.013 254.425C265.401 254.425 269.526 255.547 273.119 257.521C273.367 257.235 273.617 256.951 273.863 256.663L273.866 256.665L274.626 257.315C274.421 257.555 274.212 257.793 274.006 258.031C281.313 262.44 286.2 270.455 286.2 279.612L286.192 280.263C285.847 293.873 274.706 304.8 261.013 304.8L260.362 304.792C246.968 304.453 236.173 293.656 235.833 280.263L235.825 279.612C235.825 265.702 247.102 254.425 261.013 254.425ZM261.013 255.425C247.654 255.425 236.825 266.254 236.825 279.612C236.825 292.97 247.654 303.8 261.013 303.8C274.371 303.8 285.2 292.97 285.2 279.612C285.2 270.757 280.441 263.013 273.341 258.799C271.977 260.355 270.583 261.884 269.159 263.384L268.434 262.695L268.432 262.693C269.798 261.254 271.136 259.786 272.447 258.294C269.042 256.464 265.149 255.425 261.013 255.425ZM89.2568 295.932C91.6929 297.096 94.1646 298.197 96.6689 299.235L96.668 299.238L96.2852 300.162C93.7647 299.117 91.2769 298.007 88.8252 296.836L89.2568 295.934V295.932ZM222.743 295.934L223.175 296.836C220.723 298.007 218.235 299.117 215.715 300.162L215.332 299.238L215.33 299.235C217.834 298.197 220.306 297.096 222.742 295.932L222.743 295.934ZM75.0039 288.176C77.3066 289.59 79.6482 290.947 82.0283 292.242V292.244L81.5508 293.122C79.1553 291.819 76.797 290.454 74.4795 289.031L75.0029 288.179L75.0039 288.176ZM236.997 288.179L237.521 289.031C235.203 290.454 232.845 291.819 230.449 293.122L229.972 292.244L229.971 292.242C232.351 290.947 234.692 289.59 236.995 288.176L236.997 288.179ZM261.4 272.911C261.676 272.911 261.9 273.135 261.9 273.411V279.498H267.987C268.263 279.498 268.487 279.722 268.487 279.998C268.487 280.274 268.263 280.498 267.987 280.498H261.9V286.586C261.9 286.862 261.676 287.086 261.4 287.086C261.124 287.086 260.901 286.862 260.9 286.586V280.498H254.812C254.536 280.498 254.312 280.274 254.312 279.998C254.313 279.722 254.537 279.498 254.812 279.498H260.9V273.411C260.901 273.135 261.125 272.911 261.4 272.911ZM61.6387 278.976C63.7823 280.623 65.9711 282.214 68.2012 283.75L68.2002 283.753L67.6338 284.576C65.3893 283.031 63.1867 281.427 61.0293 279.77L61.6387 278.977V278.976ZM250.361 278.977L250.971 279.77C248.813 281.427 246.611 283.031 244.366 284.576L243.8 283.753L243.798 283.75C246.028 282.214 248.217 280.623 250.36 278.976L250.361 278.977ZM49.3057 268.432C51.2675 270.294 53.2789 272.105 55.3359 273.863L55.334 273.866L55.0098 274.246L55.0088 274.245L54.6846 274.626C52.6144 272.856 50.5905 271.033 48.6162 269.159L49.3047 268.434L49.3057 268.432ZM262.695 268.434L263.384 269.158C261.409 271.032 259.386 272.856 257.315 274.626L256.99 274.245L256.666 273.865L256.664 273.862C258.721 272.104 260.732 270.294 262.693 268.432L262.695 268.434ZM38.1357 256.663C39.8943 258.72 41.7051 260.732 43.5674 262.693L43.5664 262.695L42.8408 263.384C40.9667 261.41 39.1438 259.386 37.374 257.315L37.7539 256.99L38.1338 256.666L38.1348 256.665L38.1357 256.663ZM28.249 243.798C29.7846 246.028 31.3762 248.217 33.0234 250.36V250.361L32.2305 250.971C30.5726 248.813 28.9693 246.611 27.4238 244.366L28.2471 243.8L28.249 243.798ZM283.753 243.8L284.576 244.366C283.031 246.611 281.427 248.813 279.77 250.971L278.977 250.361L278.976 250.36C280.623 248.217 282.214 246.028 283.75 243.798L283.753 243.8ZM19.7568 229.971C21.0517 232.351 22.4083 234.693 23.8223 236.995L23.8213 236.997L22.9688 237.52C21.5457 235.202 20.1812 232.845 18.8779 230.449L19.7559 229.972L19.7568 229.971ZM292.244 229.972L293.122 230.449C291.819 232.845 290.454 235.202 289.031 237.52L288.605 237.258V237.259L288.18 236.997L288.177 236.995C289.591 234.693 290.947 232.351 292.242 229.971L292.244 229.972ZM12.7637 215.33C13.8021 217.834 14.9034 220.306 16.0674 222.742L16.0664 222.743L15.1641 223.175C13.9926 220.723 12.8831 218.235 11.8379 215.715L12.7617 215.332L12.7637 215.33ZM299.238 215.332L300.162 215.715C299.117 218.235 298.007 220.723 296.836 223.175L295.934 222.743L295.932 222.742C297.096 220.306 298.197 217.834 299.235 215.33L299.238 215.332ZM7.3457 200.038C8.11527 202.64 8.95205 205.213 9.85254 207.756L9.85156 207.757L9.38086 207.924L9.37988 207.923L8.90918 208.091C8.00283 205.532 7.1613 202.941 6.38672 200.322L7.3457 200.039V200.038ZM304.654 200.039L305.613 200.322C304.839 202.941 303.997 205.532 303.091 208.091L302.619 207.923V207.924L302.148 207.757L302.146 207.756C303.047 205.213 303.884 202.64 304.653 200.038L304.654 200.039ZM3.57227 184.26C4.06426 186.93 4.62493 189.577 5.25195 192.198L5.25 192.199L4.76367 192.316L4.7627 192.315L4.27734 192.433C3.6462 189.795 3.08213 187.13 2.58691 184.441L3.57031 184.261L3.57227 184.26ZM308.43 184.261L309.413 184.441C308.918 187.13 308.354 189.795 307.723 192.433L307.236 192.315L306.75 192.199L306.747 192.198C307.374 189.577 307.935 186.93 308.427 184.26L308.43 184.261ZM174.857 166.285C179.272 166.285 183.506 168.039 186.628 171.16C189.749 174.282 191.503 178.516 191.503 182.931C191.503 185.204 190.6 187.386 188.992 188.993C187.385 190.601 185.204 191.504 182.931 191.504H134.493C132.22 191.504 130.038 190.601 128.431 188.993C126.823 187.386 125.92 185.204 125.92 182.931C125.92 178.516 127.674 174.282 130.795 171.16C133.916 168.039 138.151 166.285 142.565 166.285H174.857ZM142.565 167.285C138.416 167.285 134.437 168.934 131.503 171.868C128.569 174.802 126.92 178.782 126.92 182.931C126.92 184.939 127.718 186.866 129.138 188.286C130.558 189.706 132.485 190.504 134.493 190.504H182.931C184.939 190.504 186.865 189.706 188.285 188.286C189.705 186.866 190.503 184.939 190.503 182.931C190.503 178.782 188.855 174.802 185.921 171.868C182.987 168.934 179.007 167.285 174.857 167.285H142.565ZM1.47168 168.172C1.68224 170.882 1.96332 173.574 2.31152 176.243L2.31055 176.244L1.31836 176.374C0.967912 173.687 0.685553 170.979 0.473633 168.251L1.4707 168.173L1.47168 168.172ZM310.529 168.173L311.526 168.251C311.314 170.979 311.032 173.687 310.682 176.374L309.689 176.244L309.688 176.243C310.036 173.574 310.317 170.882 310.527 168.172L310.529 168.173ZM1.05273 151.931C1.01789 153.283 1 154.64 1 156L1.0127 158.003C1.02143 158.692 1.03503 159.381 1.05273 160.068V160.069L0.0527344 160.095C0.017674 158.734 4.24314e-06 157.369 0 156C0 154.631 0.017679 153.266 0.0527344 151.905L1.05273 151.931ZM311.947 151.905C311.982 153.266 312 154.631 312 156C312 157.369 311.982 158.734 311.947 160.095L310.947 160.069L310.946 160.068C310.964 159.381 310.979 158.692 310.987 158.003L311 156C311 154.64 310.981 153.283 310.946 151.931L311.947 151.905ZM158.712 125.92C165.675 125.92 171.32 131.566 171.32 138.529C171.32 145.493 165.675 151.137 158.712 151.138C151.748 151.137 146.103 145.493 146.103 138.529C146.103 131.566 151.749 125.92 158.712 125.92ZM158.712 126.92C152.301 126.92 147.103 132.118 147.103 138.529C147.103 144.941 152.301 150.137 158.712 150.138C165.123 150.137 170.32 144.941 170.32 138.529C170.32 132.118 165.123 126.92 158.712 126.92ZM1.81348 135.69L2.31055 135.756H2.31152C1.96331 138.425 1.68225 141.117 1.47168 143.827H1.4707L0.473633 143.749C0.685546 141.021 0.967918 138.313 1.31836 135.626L1.81348 135.69ZM310.682 135.626C311.032 138.313 311.314 141.021 311.526 143.749L310.529 143.827H310.527C310.317 141.117 310.036 138.425 309.688 135.756H309.689L310.682 135.626ZM4.7627 119.684L5.25 119.801H5.25195C4.62492 122.422 4.06427 125.069 3.57227 127.739H3.57031L2.58691 127.558C3.0821 124.87 3.64625 122.205 4.27734 119.567L4.7627 119.684ZM307.723 119.567C308.354 122.205 308.918 124.87 309.413 127.558L308.921 127.647L308.922 127.648L308.43 127.739H308.427C307.935 125.068 307.374 122.421 306.747 119.8H306.75L307.723 119.567ZM9.85156 104.243H9.85254C8.95205 106.786 8.11528 109.359 7.3457 111.961L6.38672 111.678C7.16129 109.059 8.00284 106.468 8.90918 103.909L9.85156 104.243ZM303.091 103.909C303.997 106.468 304.839 109.058 305.613 111.677L305.133 111.818L305.134 111.819L304.654 111.961H304.653C303.884 109.359 303.047 106.786 302.146 104.243H302.148L303.091 103.909ZM16.0664 89.2568H16.0674C14.9034 91.6928 13.8021 94.1647 12.7637 96.6689L12.7617 96.668L11.8379 96.2852C12.8831 93.7647 13.9926 91.2769 15.1641 88.8252L16.0664 89.2568ZM296.836 88.8252C298.007 91.2769 299.117 93.7648 300.162 96.2852L299.238 96.668L299.235 96.6689C298.197 94.1647 297.096 91.6928 295.932 89.2568H295.934L296.836 88.8252ZM23.8203 75.0029L23.8223 75.0039C22.4083 77.3064 21.0517 79.6484 19.7568 82.0283H19.7559L18.8779 81.5508C20.1813 79.1553 21.5456 76.7969 22.9688 74.4795L23.8203 75.0029ZM289.031 74.4795C290.454 76.797 291.819 79.1553 293.122 81.5508L292.244 82.0283H292.242C290.947 79.6484 289.591 77.3064 288.177 75.0039L288.179 75.0029L289.031 74.4795ZM33.0234 61.6387C31.3762 63.7822 29.7846 65.9711 28.249 68.2012L28.2471 68.2002L27.4238 67.6338C28.9693 65.3893 30.5726 63.1867 32.2305 61.0293L33.0234 61.6387ZM279.77 61.0293C281.427 63.1867 283.031 65.3893 284.576 67.6338L283.753 68.2002L283.75 68.2012C282.214 65.9711 280.623 63.7822 278.976 61.6387H278.977L279.77 61.0293ZM43.5664 49.3047L43.5674 49.3057C41.7051 51.2675 39.8943 53.2789 38.1357 55.3359L38.1338 55.334L37.7539 55.0098V55.0088L37.374 54.6846C39.1438 52.6144 40.9667 50.5905 42.8408 48.6162L43.5664 49.3047ZM269.159 48.6162C271.033 50.5905 272.856 52.6144 274.626 54.6846L274.245 55.0088L273.866 55.334L273.863 55.3359C272.105 53.2789 270.294 51.2675 268.432 49.3057L268.434 49.3047L269.159 48.6162ZM55.334 38.1338L55.3359 38.1357C53.2789 39.8943 51.2675 41.7051 49.3057 43.5674L49.3047 43.5664L48.6162 42.8408C50.5905 40.9667 52.6144 39.1438 54.6846 37.374L55.334 38.1338ZM257.315 37.374C259.386 39.1438 261.409 40.9667 263.384 42.8408L262.695 43.5664L262.693 43.5674C260.732 41.7051 258.72 39.8943 256.663 38.1357L256.666 38.1338L257.315 37.374ZM68.2002 28.2471L68.2012 28.249C65.9711 29.7846 63.7823 31.3762 61.6387 33.0234L61.0293 32.2305C63.1867 30.5726 65.3893 28.9694 67.6338 27.4238L68.2002 28.2471ZM244.366 27.4238C246.611 28.9694 248.813 30.5726 250.971 32.2305L250.361 33.0234H250.36C248.217 31.3762 246.028 29.7846 243.798 28.249L243.8 28.2471L244.083 27.8359L244.366 27.4238ZM82.0283 19.7559V19.7568C79.6483 21.0518 77.3064 22.4083 75.0039 23.8223L75.0029 23.8203L74.4795 22.9688C76.797 21.5456 79.1553 20.1813 81.5508 18.8779L82.0283 19.7559ZM230.449 18.8779C232.845 20.1813 235.203 21.5456 237.521 22.9688L236.997 23.8203L236.995 23.8223C234.693 22.4083 232.351 21.0518 229.971 19.7568L229.972 19.7559L230.449 18.8779ZM96.668 12.7617L96.6689 12.7637C94.1646 13.8022 91.6929 14.9034 89.2568 16.0674V16.0664L88.8252 15.1641C91.2769 13.9926 93.7647 12.8831 96.2852 11.8379L96.668 12.7617ZM215.715 11.8379C218.235 12.8831 220.723 13.9926 223.175 15.1641L222.743 16.0664L222.742 16.0674C220.306 14.9034 217.834 13.8022 215.33 12.7637L215.332 12.7617L215.715 11.8379ZM111.961 7.3457C109.359 8.11531 106.786 8.95201 104.243 9.85254V9.85156L103.909 8.90918C106.468 8.0028 109.059 7.16132 111.678 6.38672L111.961 7.3457ZM200.322 6.38672C202.941 7.16132 205.532 8.0028 208.091 8.90918L207.757 9.85156L207.756 9.85254C205.213 8.95202 202.64 8.11529 200.038 7.3457H200.039L200.322 6.38672ZM127.739 3.57031V3.57227C125.068 4.06429 122.422 4.62488 119.801 5.25195V5.25L119.567 4.27734C122.205 3.64617 124.87 3.08214 127.559 2.58691L127.739 3.57031ZM184.441 2.58691C187.13 3.08214 189.795 3.64617 192.433 4.27734L192.199 5.25L192.198 5.25195C189.577 4.6249 186.931 4.06428 184.26 3.57227L184.261 3.57031L184.441 2.58691ZM143.827 1.4707V1.47168C141.117 1.68226 138.426 1.96328 135.756 2.31152V2.31055L135.711 1.96973L135.69 1.81445V1.81348L135.626 1.31836C138.313 0.967893 141.021 0.685557 143.749 0.473633L143.827 1.4707ZM168.251 0.473633C170.979 0.685557 173.687 0.967894 176.374 1.31836L176.309 1.81348L176.244 2.31055L176.243 2.31152C173.573 1.9633 170.882 1.68224 168.172 1.47168L168.173 1.4707L168.251 0.473633ZM156 0C157.369 0 158.734 0.0176706 160.095 0.0527344L160.069 1.05273H160.068C158.716 1.0179 157.36 1 156 1C154.639 1 153.283 1.01789 151.931 1.05273L151.905 0.0527344C153.266 0.0176706 154.631 0 156 0Z" fill="black"/>
</svg>
