<svg width="101" height="76" viewBox="0 0 101 76" fill="none" xmlns="http://www.w3.org/2000/svg">
<rect x="0.5" width="100" height="76" rx="38" fill="#898585"/>
<path d="M35.5 13C49.3071 13 60.5 24.1929 60.5 38C60.5 51.8071 49.3071 63 35.5 63C21.6929 63 10.5 51.8071 10.5 38C10.5 24.1929 21.6929 13 35.5 13Z" fill="#D9D9D9"/>
<path d="M28.0642 43.5771C28.0642 42.591 28.4559 41.6453 29.1532 40.9481C29.8504 40.2508 30.7961 39.8591 31.7822 39.8591H39.2181C40.2041 39.8591 41.1498 40.2508 41.847 40.9481C42.5443 41.6453 42.936 42.591 42.936 43.5771C42.936 44.0701 42.7401 44.5429 42.3915 44.8916C42.0429 45.2402 41.5701 45.4361 41.077 45.4361H29.9232C29.4302 45.4361 28.9573 45.2402 28.6087 44.8916C28.2601 44.5429 28.0642 44.0701 28.0642 43.5771Z" stroke="black" stroke-linejoin="round"/>
<path d="M35.5001 36.1411C37.0402 36.1411 38.2886 34.8927 38.2886 33.3527C38.2886 31.8126 37.0402 30.5642 35.5001 30.5642C33.9601 30.5642 32.7117 31.8126 32.7117 33.3527C32.7117 34.8927 33.9601 36.1411 35.5001 36.1411Z" stroke="black"/>
<g clip-path="url(#clip0_167_77)">
<path d="M87.3007 33.5063L88.6382 34.938L81.4855 42.8616C81.3709 42.9894 81.2342 43.0911 81.0832 43.1611C80.9322 43.231 80.77 43.2677 80.6059 43.2692C80.4417 43.2706 80.2789 43.2367 80.1267 43.1694C79.9746 43.1021 79.8361 43.0027 79.7193 42.877L72.4263 35.0788L73.7387 33.6255L80.5838 40.9446L87.3007 33.5063Z" fill="black"/>
</g>
<defs>
<clipPath id="clip0_167_77">
<rect width="15" height="30" fill="white" transform="translate(95.4988 30.3699) rotate(89.5023)"/>
</clipPath>
</defs>
</svg>
