<svg width="42" height="42" viewBox="0 0 42 42" fill="none" xmlns="http://www.w3.org/2000/svg">
<path d="M37.723 12.5947C37.5241 11.8536 37.1337 11.1778 36.5911 10.6352C36.0485 10.0926 35.3728 9.70222 34.6316 9.50331C32.6069 8.72106 12.9911 8.33781 7.30013 9.52519C6.55889 9.72417 5.88304 10.1147 5.34043 10.6574C4.79782 11.2002 4.40753 11.8761 4.20875 12.6174C3.29438 16.6276 3.22525 25.2971 4.2315 29.3973C4.43041 30.1384 4.82076 30.8142 5.36337 31.3568C5.90597 31.8994 6.58175 32.2898 7.32288 32.4887C11.333 33.4118 30.3975 33.5413 34.6544 32.4887C35.3955 32.2898 36.0713 31.8994 36.6139 31.3568C37.1565 30.8142 37.5468 30.1384 37.7458 29.3973C38.7205 25.0284 38.7896 16.8962 37.723 12.5947Z" stroke="black" stroke-width="0.5" stroke-linecap="round" stroke-linejoin="round"/>
<path d="M26.7461 20.9955L17.605 15.7534V26.2377L26.7461 20.9955Z" stroke="black" stroke-width="0.5" stroke-linecap="round" stroke-linejoin="round"/>
</svg>
